<svg width="66" height="63" viewBox="0 0 66 63" xmlns="http://www.w3.org/2000/svg"><title>logo-marque-light</title><path d="M65.217 32.48C65.217 14.543 50.62 0 32.607 0 14.6 0 0 14.542 0 32.48c0 7.38 2.473 14.185 6.634 19.64 0 0 9.4-7.61 8.457-9.628-1.48-2.102-1.577-.61-4.646-2.445-1.488-.89-1.4-2.09.526-2.533 1.924-.442 3.03-1.583 4.12-1.92 1.09-.34 4.097-2.046 5.31-2.91 1.216-.865 4-4.235 5.995-5.817 1.994-1.582 7.836-3.597 7.836-3.597l1.923.382 2.92-.306s8.324-7.544 9.765-8.575c1.44-1.03 1.965 1.355 1.965 1.355s.503.568 1.48 2.026c.98 1.468.992 3.353.928 4.66-.064 1.307-1.054 5.175-1.054 5.175s1.694-.13 2.207.26c.513.39.756 1.278.513 2.246-.243.97-.99 2.543-1.783 3.715-.794 1.173-2.88 4.45-2.88 4.45S45.75 43.507 47.147 51.5c.873 5-1.512 10.766-1.512 10.766 11.526-5.01 19.583-16.46 19.583-29.785zm-14.84-3.77l1.692-.74s1.057-6.378.526-6.29c-.53.088-2.4 1.585-3.98 4.055-.494.493-4.193 3.953-4.193 3.953s-.497.944-.228 1.897c.322 1.143 2.722-.184 3.34-.732.616-.548 1.767-1.53 1.767-1.53l-.23-1.685 1.306 1.07zM35.923 25.98c-.74.386-.506.2-1.318.297-.813.095-1.325-.24-1.692-.06-.367.183-1.056 2.107-1.056 2.107s2.534-.99 2.92-1.226c.386-.234.462-.334.462-.334s.195-.21.837-.708c.642-.497.98-1.158.98-1.158s-.392.697-1.133 1.082z" fill="#FEFDFF" fill-rule="evenodd"/></svg>